<?xml version="1.0" standalone="no"?>
<!DOCTYPE svg PUBLIC "-//W3C//DTD SVG 1.1//EN" "http://www.w3.org/Graphics/SVG/1.1/DTD/svg11.dtd">
<svg t="1580369880177" class="icon" viewBox="0 0 1365 1024" version="1.1" xmlns="http://www.w3.org/2000/svg" p-id="2117" xmlns:xlink="http://www.w3.org/1999/xlink" width="266.6015625" height="200">
    <defs>
        <style type="text/css"/>
    </defs>
    <path d="M939.170217 622.73164l20.668138 81.840708-111.147232-27.194919a365.563693 365.563693 0 0 1-137.70227 27.194919c-29.626464 0-57.653227-4.415175-84.784158-10.749992 123.6249-72.242501 205.657572-197.851031 205.657572-341.12026 0-52.278232-11.325884-102.124918-31.098189-148.004345 128.679956 31.73807 223.06232 128.296027 223.06232 243.986411 0 67.443398-32.569914 128.296027-84.656181 174.047478z m-555.224255 81.840708a414.002642 414.002642 0 0 1-124.776685-19.388377l-195.163532 83.37642 32.121997-183.581697C36.490886 522.97428 0.017701 441.901429 0.017701 352.702096c0-194.331688 171.935873-351.870252 383.928261-351.870251s383.928261 157.538563 383.928262 351.870251c0 194.2677-171.935873 351.870252-383.928262 351.870252z m-191.96413-447.852317a63.988044 63.988044 0 1 0 0 127.976087 63.988044 63.988044 0 1 0 0-127.976087z m191.96413 0a63.988044 63.988044 0 1 0 0 127.976087 63.988044 63.988044 0 1 0 0-127.976087z m191.964131 0a63.988044 63.988044 0 1 0 0 127.976087 63.988044 63.988044 0 1 0 0-127.976087z" fill="#3385FF" p-id="2118"/>
</svg>
